<svg width="163" height="163" viewBox="0 0 163 163" fill="none" xmlns="http://www.w3.org/2000/svg">
<circle cx="81.5" cy="81.5" r="81.5" fill="white"/>
<path d="M91.8818 53.4543C97.8313 47.5048 97.8313 37.9275 91.8818 31.9779L88.9796 34.735C93.3329 39.0883 93.478 46.1988 88.9796 50.6972L91.8818 53.4543Z" fill="url(#paint0_linear_1_31)"/>
<path d="M100.443 61.8707C111.036 51.2776 111.036 34.0095 100.443 23.4164L97.541 26.1735C106.538 35.1704 106.538 49.9716 97.541 58.9685L100.443 61.8707Z" fill="url(#paint1_linear_1_31)"/>
<path d="M108.86 15L106.103 17.7571C119.888 31.5426 119.888 53.7445 106.103 67.53L108.86 70.4322C124.096 55.0505 124.096 30.3817 108.86 15Z" fill="url(#paint2_linear_1_31)"/>
<path d="M73.1624 50.6972C68.8091 46.3439 68.664 39.2335 73.1624 34.735L70.4053 31.9779C64.4558 37.9275 64.4558 47.5048 70.4053 53.4543L73.1624 50.6972Z" fill="url(#paint3_linear_1_31)"/>
<path d="M56.1845 17.7571L53.4274 15C38.1909 30.2366 38.1909 55.0505 53.4274 70.4322L56.3297 67.53C42.5442 53.8896 42.5442 31.5426 56.1845 17.7571C56.1845 17.9022 56.1845 17.9022 56.1845 17.7571Z" fill="url(#paint4_linear_1_31)"/>
<path d="M61.989 62.0158L64.7461 59.1136C55.7492 50.1167 55.6041 35.3155 64.7461 26.3186L61.989 23.4164C51.2508 34.0095 51.2508 51.2776 61.989 62.0158C61.8439 61.8707 61.8439 61.8707 61.989 62.0158Z" fill="url(#paint5_linear_1_31)"/>
<path d="M83.1751 71.448V46.7792C85.4968 45.6183 86.5126 42.8612 85.3517 40.6845C84.1909 38.3628 81.4338 37.347 79.2571 38.5079C77.0804 39.6688 75.9196 42.4259 77.0804 44.6025C77.5158 45.6183 78.2413 46.3438 79.2571 46.7792V71.3028H71.8565L56.3297 152.855H60.3927L61.4085 147.486L81.1435 135.877L100.879 147.486L101.894 153H105.957L90.5757 71.448H83.1751ZM71.5662 102.937L81.1435 95.3912L90.7208 102.937H71.5662ZM90.4306 104.968L81.1435 111.934L71.7114 104.968H90.4306ZM74.1782 87.5552H87.8186L81.1435 92.9243L74.1782 87.5552ZM74.3233 85.5237L81.1435 80.4448L87.8186 85.5237H74.3233ZM77.6609 75.3659H84.4811L81.1435 77.9779L77.6609 75.3659ZM79.4022 79.1388L73.4527 83.6372L74.9038 75.8013L79.4022 79.1388ZM79.4022 94.0852L69.97 101.486L72.4369 88.571L79.4022 94.0852ZM69.2445 105.694L79.4022 113.24L66.052 123.107L69.2445 105.694ZM81.1435 114.401L94.3486 124.123H67.9385L81.1435 114.401ZM82.8849 113.095L93.0426 105.549L96.3801 122.962L82.8849 113.095ZM82.8849 94.0852L89.8502 88.571L92.317 101.486L82.8849 94.0852ZM82.8849 79.1388L87.3833 75.8013L88.8344 83.6372L82.8849 79.1388ZM61.8438 144.874L65.3265 126.59L79.112 134.716L61.8438 144.874ZM68.664 126.155H93.623L81.1435 133.555L68.664 126.155ZM83.1751 134.716L96.9606 126.59L100.443 144.874L83.1751 134.716Z" fill="url(#paint6_linear_1_31)"/>
<path d="M91.8818 53.4543C97.8313 47.5048 97.8313 37.9275 91.8818 31.9779L88.9796 34.735C93.3329 39.0883 93.478 46.1988 88.9796 50.6972L91.8818 53.4543Z" fill="url(#paint7_linear_1_31)"/>
<path d="M100.443 61.8707C111.036 51.2776 111.036 34.0095 100.443 23.4164L97.541 26.1735C106.538 35.1704 106.538 49.9716 97.541 58.9685L100.443 61.8707Z" fill="url(#paint8_linear_1_31)"/>
<path d="M108.86 15L106.103 17.7571C119.888 31.5426 119.888 53.7445 106.103 67.53L108.86 70.4322C124.096 55.0505 124.096 30.3817 108.86 15Z" fill="url(#paint9_linear_1_31)"/>
<path d="M73.1624 50.6972C68.8091 46.3439 68.664 39.2335 73.1624 34.735L70.4053 31.9779C64.4558 37.9275 64.4558 47.5048 70.4053 53.4543L73.1624 50.6972Z" fill="url(#paint10_linear_1_31)"/>
<path d="M56.1845 17.7571L53.4274 15C38.1909 30.2366 38.1909 55.0505 53.4274 70.4322L56.3297 67.53C42.5442 53.8896 42.5442 31.5426 56.1845 17.7571C56.1845 17.9022 56.1845 17.9022 56.1845 17.7571Z" fill="url(#paint11_linear_1_31)"/>
<path d="M61.989 62.0158L64.7461 59.1136C55.7492 50.1167 55.6041 35.3155 64.7461 26.3186L61.989 23.4164C51.2508 34.0095 51.2508 51.2776 61.989 62.0158C61.8439 61.8707 61.8439 61.8707 61.989 62.0158Z" fill="url(#paint12_linear_1_31)"/>
<path d="M83.1751 71.448V46.7792C85.4968 45.6183 86.5126 42.8612 85.3517 40.6845C84.1909 38.3628 81.4338 37.347 79.2571 38.5079C77.0804 39.6688 75.9196 42.4259 77.0804 44.6025C77.5158 45.6183 78.2413 46.3438 79.2571 46.7792V71.3028H71.8565L56.3297 152.855H60.3927L61.4085 147.486L81.1435 135.877L100.879 147.486L101.894 153H105.957L90.5757 71.448H83.1751ZM71.5662 102.937L81.1435 95.3912L90.7208 102.937H71.5662ZM90.4306 104.968L81.1435 111.934L71.7114 104.968H90.4306ZM74.1782 87.5552H87.8186L81.1435 92.9243L74.1782 87.5552ZM74.3233 85.5237L81.1435 80.4448L87.8186 85.5237H74.3233ZM77.6609 75.3659H84.4811L81.1435 77.9779L77.6609 75.3659ZM79.4022 79.1388L73.4527 83.6372L74.9038 75.8013L79.4022 79.1388ZM79.4022 94.0852L69.97 101.486L72.4369 88.571L79.4022 94.0852ZM69.2445 105.694L79.4022 113.24L66.052 123.107L69.2445 105.694ZM81.1435 114.401L94.3486 124.123H67.9385L81.1435 114.401ZM82.8849 113.095L93.0426 105.549L96.3801 122.962L82.8849 113.095ZM82.8849 94.0852L89.8502 88.571L92.317 101.486L82.8849 94.0852ZM82.8849 79.1388L87.3833 75.8013L88.8344 83.6372L82.8849 79.1388ZM61.8438 144.874L65.3265 126.59L79.112 134.716L61.8438 144.874ZM68.664 126.155H93.623L81.1435 133.555L68.664 126.155ZM83.1751 134.716L96.9606 126.59L100.443 144.874L83.1751 134.716Z" fill="url(#paint13_linear_1_31)"/>
<defs>
<linearGradient id="paint0_linear_1_31" x1="88.9796" y1="31.9779" x2="96.3439" y2="31.9779" gradientUnits="userSpaceOnUse">
<stop stop-color="#2D388A"/>
<stop offset="1" stop-color="#00AEEF"/>
</linearGradient>
<linearGradient id="paint1_linear_1_31" x1="97.541" y1="23.4164" x2="108.388" y2="23.4164" gradientUnits="userSpaceOnUse">
<stop stop-color="#2D388A"/>
<stop offset="1" stop-color="#00AEEF"/>
</linearGradient>
<linearGradient id="paint2_linear_1_31" x1="106.103" y1="15" x2="120.287" y2="15" gradientUnits="userSpaceOnUse">
<stop stop-color="#2D388A"/>
<stop offset="1" stop-color="#00AEEF"/>
</linearGradient>
<linearGradient id="paint3_linear_1_31" x1="65.9432" y1="31.9779" x2="73.1624" y2="31.9779" gradientUnits="userSpaceOnUse">
<stop stop-color="#2D388A"/>
<stop offset="1" stop-color="#00AEEF"/>
</linearGradient>
<linearGradient id="paint4_linear_1_31" x1="42" y1="15" x2="56.3297" y2="15" gradientUnits="userSpaceOnUse">
<stop stop-color="#2D388A"/>
<stop offset="1" stop-color="#00AEEF"/>
</linearGradient>
<linearGradient id="paint5_linear_1_31" x1="53.9354" y1="23.4164" x2="64.7461" y2="23.4164" gradientUnits="userSpaceOnUse">
<stop stop-color="#2D388A"/>
<stop offset="1" stop-color="#00AEEF"/>
</linearGradient>
<linearGradient id="paint6_linear_1_31" x1="56.3297" y1="38.0255" x2="105.957" y2="38.0255" gradientUnits="userSpaceOnUse">
<stop stop-color="#2D388A"/>
<stop offset="1" stop-color="#00AEEF"/>
</linearGradient>
<linearGradient id="paint7_linear_1_31" x1="88.9796" y1="31.9779" x2="96.3439" y2="31.9779" gradientUnits="userSpaceOnUse">
<stop stop-color="#2D388A"/>
<stop offset="1" stop-color="#00AEEF"/>
</linearGradient>
<linearGradient id="paint8_linear_1_31" x1="97.541" y1="23.4164" x2="108.388" y2="23.4164" gradientUnits="userSpaceOnUse">
<stop stop-color="#2D388A"/>
<stop offset="1" stop-color="#00AEEF"/>
</linearGradient>
<linearGradient id="paint9_linear_1_31" x1="106.103" y1="15" x2="120.287" y2="15" gradientUnits="userSpaceOnUse">
<stop stop-color="#2D388A"/>
<stop offset="1" stop-color="#00AEEF"/>
</linearGradient>
<linearGradient id="paint10_linear_1_31" x1="65.9432" y1="31.9779" x2="73.1624" y2="31.9779" gradientUnits="userSpaceOnUse">
<stop stop-color="#2D388A"/>
<stop offset="1" stop-color="#00AEEF"/>
</linearGradient>
<linearGradient id="paint11_linear_1_31" x1="42" y1="15" x2="56.3297" y2="15" gradientUnits="userSpaceOnUse">
<stop stop-color="#2D388A"/>
<stop offset="1" stop-color="#00AEEF"/>
</linearGradient>
<linearGradient id="paint12_linear_1_31" x1="53.9354" y1="23.4164" x2="64.7461" y2="23.4164" gradientUnits="userSpaceOnUse">
<stop stop-color="#2D388A"/>
<stop offset="1" stop-color="#00AEEF"/>
</linearGradient>
<linearGradient id="paint13_linear_1_31" x1="56.3297" y1="38.0255" x2="105.957" y2="38.0255" gradientUnits="userSpaceOnUse">
<stop stop-color="#2D388A"/>
<stop offset="1" stop-color="#00AEEF"/>
</linearGradient>
</defs>
</svg>
